<?xml version="1.0" encoding="UTF-8"?>
<svg id="a" data-name="Layer 1" xmlns="http://www.w3.org/2000/svg" width="208.237" height="71.147" viewBox="0 0 208.237 71.147">
  <path d="m40.418,15.666c.792-1.403,1.208-2.823,1.208-4.128,0-3.731-3.242-6.441-7.711-6.441s-9.32,1.264-13.636,1.815c-3.726.476-9.606,1.634-12.384,1.634-1.256,0-5.92.137-6.124-2.858C.682,6.912-.269,9.394.069,11.676c.817,5.497,7.674,5.224,9.89,5.224.846,0,1.72-.059,2.643-.121.975-.065,1.982-.133,3.014-.133h.872l-.297.82c-1.531,4.242-12.608,30.12-12.608,33.278,0,4.347,4.567,4.339,8,4.573,1.579-3.946,11.511-30.718,16.52-39.88l.145-.26.293-.05c.985-.164,2.533-.199,3.658-.199,2.37,0,5.85.195,8.22.737Z" fill="#231f20" stroke-width="0"/>
  <path d="m79.922,48.896c-2.533.598-5.727.319-5.716-4.895.014-6.367,7.017-13.753,10.498-13.753.624,0,2.458.456,2.055,2.49-2.136,10.811-11.999,9.121-11.248,10.372,3.545,5.909,20.946-2.876,19.27-15.292-.569-4.234-3.131-7.093-8.02-7.093-9.067,0-19.443,13.462-21.284,23.38-3.693,3.764-7.913,3.496-8.229,3.467-.256-.356-.278-1.08.152-2.487.767-2.509,2.522-6.31,4.531-9.676,1.892-3.168,3.846-6.443,3.846-8.873,0-2.925-1.719-4.407-5.108-4.407-4.422,0-12.553,5.411-12.553,5.411.317-2.575,8.533-19.211,8.533-21.443,0-2.617-1.181-4.426-4.446-4.426-.847,0-3.314.845-4.743,1.364-1.364,10.459-6.763,19.096-8.91,23.884-4.008,8.938-8.439,18.285-8.439,22.182,0,3.675,3.536,7.193,7.35,7.35,3.435-12.961,11.813-27.032,17.554-27.032,0,0-6.633,13.812-6.633,20.121,0,3.121.661,6.314,5.553,6.314.024,0,.046-.004.07-.004,4.43.46,9.214-5.523,11.211-8.351.28,6.718,6.139,7.475,8.7,7.475,7.462,0,14.068-4.543,19.07-12.608-2.774,2.312-9.595,5.716-13.065,6.532Z" fill="#231f20" stroke-width="0"/>
  <path d="m131.217,44.773c.258-1.006.98-2.999,2.713-6.361,2.175-4.235,5.159-10.029,5.159-13.527,0-2.04-.973-2.947-3.159-2.947-2.798,0-6.827,2.554-10.513,6.668l-1.028,1.146v-1.562c0-4.062-1.187-6.125-3.529-6.125-2.988,0-7.861,3.389-12.415,8.63,0,0,.934-4.677.934-6.191,0-3.171-2.789-3.645-4.45-3.645-.881,0-1.806.107-2.752.323-.306,3.561-3.665,11.376-6.645,18.311-1.923,4.476-3.912,9.105-3.912,10.11,0,3.255,2.207,5.359,5.619,5.359.165,0,.352,0,.529-.012,2.511-8.439,9.232-20.829,13.989-20.829h.831l-.27.812c-.685,2.047-1.754,4.057-2.788,6.002-1.746,3.281-3.394,6.384-3.394,9.684,0,2.698,2.516,4.153,4.882,4.153.603,0,1.086-.06,1.522-.179,1.722-7.827,10.745-20.982,14.471-20.982h1.099l-.602.948c-1.104,1.735-5.562,10.013-5.562,15.869,0,3.649,1.777,5.423,5.436,5.423,5.075,0,8.694-4.688,10.123-9.762-1.644,1.129-3.102,1.377-4.643,1.377-1.237,0-2.273-.252-1.644-2.694Z" fill="#231f20" stroke-width="0"/>
  <path d="m153.535,48.699c-2.709,2.234-6.398.215-6.454-1.845-.06-2.253,1.93-6.254,4.394-11.073,1.941-3.801,4.45-6.401,4.216-8.325-.33-2.71-4.053-4.854-6.388-4.854-.207,0-.412.017-.619.032-.097.005-.189.013-.286.019-1.262,3.275-2.91,6.835-4.502,10.281-2.851,6.166-5.542,11.994-5.542,15.045,0,3.83,2.584,7.965,6.759,7.965,4.384-.208,6.659-2.105,8.422-7.245Z" fill="#231f20" stroke-width="0"/>
  <path d="m154.804,18.435c1.117,0,2.479-.124,3.96-.357,1.919-2.344,2.892-4.307,2.892-5.826,0-1.582-2.48-2.453-9.609-2.52-2.242,2.271-2.123,3.925-2.123,5.742,0,1.99,1.6,2.961,4.881,2.961Z" fill="#231f20" stroke-width="0"/>
  <path d="m200.761,19.641l-.375.01-.045.349c-.782,5.889-12.846,25.768-15.095,20.119-.509-1.277.932-4.675,2.142-7.517,1.381-3.232,2.943-6.894,2.772-8.956-.037-.466-.192-.858-.423-1.202-.138-.299-.404-.618-.872-.919-.375-.241-.884-.432-1.504-.582-1.439-.416-3.177-.488-4.602-.447-1.622-.022-3.404.04-5.2.153l.103-.336c1.723-5.644,6.317-10.892,7.613-11.689,3.195-1.973,7.482-2.45,8.435,1.906.817-1.837,1.04-2.366.817-3.743-.68-4.218-3.813-6.512-8.76-6.774-8.971-.471-15.366,12.657-18.443,20.156l-.066.163-.144.102c-.876.62-2.49,1.028-3.456,1.273-.207.054-.374.094-.482.126-1.885.679-2.264,2.509-2.294,3.316-.052,1.363,1.57,2.366,2.309,3.602,0,0-3.162,7.851-5.463,12.625-3.586,7.442-9.286,20.024-9.391,22.834-.13,3.418,4.848,6.581,7.579,6.936.824-5.679,16.925-42.068,16.925-42.068.579-.886,1.552-2.106,3.1-3.042,1.443-.579,2.55-.787,3.399-.753.193.05.364.114.509.192.445.241.716.616.891,1.01-.561,1.962-1.288,4.027-2.008,6.061-1.562,4.438-3.615,11.269-3.351,14.465.167,2.037.352,3.006,1.443,4.131,3.267,3.37,11.462-2.405,13.896-5.672l.416.156c-2.929,8.307-7.412,13.926-12.189,14.089-6.388.216-9.045-3.919-9.045-3.919,0,0-1.084,3.972,3.218,8.362,1.923,1.963,4.77,2.762,7.684,2.55.2-.015.396-.03.594-.052,11.758-1.266,16.876-14.616,20.996-27.146.579-1.756,2.565-6.433,3.155-8.114.326-.905.738-1.889,1.136-2.839l.044-.106c.947-2.245,1.566-3.776,1.504-4.558-.241-2.902-3.938-4.337-7.472-4.252Z" fill="#231f20" stroke-width="0"/>
</svg>